HIERARCHY
ROOT Hips
{
    OFFSET 0.000000 0.000000 0.000000
    CHANNELS 6 Xposition Yposition Zposition Zrotation Xrotation Yrotation
        JOINT Chest
        {
            OFFSET -0.000000 28.596201 -0.000000
            CHANNELS 3 Zrotation Xrotation Yrotation
            JOINT Neck
            {
                OFFSET -0.000000 20.833183 0.000000
                CHANNELS 3 Zrotation Xrotation Yrotation
                JOINT Head
                {
                    OFFSET -0.000000 10.327778 0.000000
                    CHANNELS 3 Zrotation Xrotation Yrotation
                    End Site
                    {
                        OFFSET -0.000000 15.961117 0.000000
                    }
                }
            }
            JOINT LeftCollar
            {
                OFFSET -0.000000 20.833183 0.000000
                CHANNELS 3 Zrotation Xrotation Yrotation
                JOINT LeftShoulder
                {
                    OFFSET 18.777777 -0.000000 0.000000
                    CHANNELS 3 Zrotation Xrotation Yrotation
                    JOINT LeftElbow
                    {
                        OFFSET 23.016544 0.000000 0.000000
                        CHANNELS 3 Zrotation Xrotation Yrotation
                        JOINT LeftWrist
                        {
                            OFFSET 24.619797 0.000000 0.000000
                            CHANNELS 3 Zrotation Xrotation Yrotation
                            End Site
                            {
                                OFFSET 0.000000 -14.083333 0.000000
                            }
                        }
                    }
                }
            }
            JOINT RightCollar
            {
                OFFSET -0.000000 20.833183 0.000000
                CHANNELS 3 Zrotation Xrotation Yrotation
                JOINT RightShoulder
                {
                    OFFSET -18.777777 0.000000 0.000000
                    CHANNELS 3 Zrotation Xrotation Yrotation
                    JOINT RightElbow
                    {
                        OFFSET -23.016544 0.000000 0.000000
                        CHANNELS 3 Zrotation Xrotation Yrotation
                        JOINT RightWrist
                        {
                            OFFSET -24.619797 0.000000 0.000000
                            CHANNELS 3 Zrotation Xrotation Yrotation
                            End Site
                            {
                                OFFSET -0.000000 -14.083333 0.000000
                            }
                        }
                    }
                }
            }
        }
    JOINT LeftHip
    {
        OFFSET 11.266668 0.000000 0.000000
        CHANNELS 3 Zrotation Xrotation Yrotation
        JOINT LeftKnee
        {
            OFFSET -0.000000 -40.535309 0.000000
            CHANNELS 3 Zrotation Xrotation Yrotation
            JOINT LeftAnkle
            {
                OFFSET -0.000000 -39.958225 0.000000
                CHANNELS 3 Zrotation Xrotation Yrotation
                End Site
                {
                    OFFSET -0.000000 -4.694444 15.961117
                }
            }
        }
    }
    JOINT RightHip
    {
        OFFSET -11.266668 0.000000 0.000000
        CHANNELS 3 Zrotation Xrotation Yrotation
        JOINT RightKnee
        {
            OFFSET -0.000000 -40.535309 0.000000
            CHANNELS 3 Zrotation Xrotation Yrotation
            JOINT RightAnkle
            {
                OFFSET -0.000000 -39.958225 0.000000
                CHANNELS 3 Zrotation Xrotation Yrotation
                End Site
                {
                    OFFSET -0.000000 -4.694444 15.961117
                }
            }
        }
    }
}
MOTION
Frames:    13
Frame Time:    0.010000
-73.908104    84.765465    -66.741028    -2.004501    3.242496    18.675356    2.247076    9.363813    3.681323    -11.565125    13.009336    -7.257493    8.336762    -33.240913    -6.124924    -17.539932    -3.439339    21.892452    -45.262283    47.938881    -7.449615    13.469392    -14.406914    -89.996490    115.110687    8.150398    41.516727    23.323395    0.530328    2.757727    27.361843    39.540607    17.830170    17.821829    12.165481    69.444099    -111.640373    -28.124136    16.730598    8.579334    -9.431726    2.354443    -0.606728    29.297371    -15.736520    1.512373    -22.413492    26.134569    -2.917112    -28.052137    -2.677180    -15.930758    32.282291    13.531184    20.965431    -9.435562    1.454057    
-74.241280    85.014473    -66.705498    -2.215068    3.582189    19.191122    2.380082    9.030652    3.627838    -11.597392    12.899896    -7.559749    8.347364    -33.576382    -6.391628    -17.361168    -3.397821    21.869997    -46.241940    48.050274    -6.734174    14.682357    -15.661066    -89.424126    115.207993    8.397079    41.487442    23.292048    0.573066    2.904862    26.824589    40.105579    19.513737    17.436544    11.787485    68.836601    -110.928246    -27.787842    16.115303    8.573942    -9.283690    1.565236    -0.385592    27.845367    -15.071213    0.966555    -21.820036    25.785326    -2.795823    -27.983967    -3.204537    -15.792327    31.543308    13.595375    20.584677    -9.031079    0.887139    
-74.572464    85.281639    -66.678963    -2.415100    4.016088    19.845402    2.476681    8.578070    3.535948    -11.578936    12.732728    -7.899013    8.329794    -33.891148    -6.695052    -17.174526    -3.365500    21.966726    -46.805393    48.395458    -6.352302    15.987248    -16.861315    -88.858803    115.491745    8.841654    41.790249    23.209190    0.603100    3.004464    26.358955    40.568600    21.063978    17.129982    11.509306    68.360687    -110.227608    -27.457048    15.600006    8.489841    -9.193871    0.740798    -0.093441    26.244051    -14.374300    0.398156    -21.122971    25.320578    -2.798343    -27.874235    -3.794944    -15.580945    30.640083    13.552336    20.261213    -8.620097    0.327722    
-74.899529    85.556015    -66.659348    -2.597360    4.518731    20.617016    2.520570    8.032783    3.454156    -11.504218    12.519064    -8.287311    8.297626    -34.184769    -7.043417    -17.007858    -3.350364    22.150190    -46.919888    48.894516    -6.328975    17.314383    -18.000736    -88.319023    115.849304    9.420251    42.293152    23.091610    0.624886    3.061549    26.014122    40.909657    22.412697    16.896296    11.317163    68.015388    -109.547455    -27.152708    15.210066    8.336183    -9.158942    -0.057881    0.271985    24.555841    -13.709374    -0.166761    -20.333427    24.766716    -2.902064    -27.710035    -4.400628    -15.312324    29.602434    13.400449    19.976826    -8.228913    -0.223621    
-75.221085    85.828125    -66.643402    -2.756886    5.056705    21.477383    2.502963    7.431788    3.422485    -11.376233    12.272443    -8.732406    8.266890    -34.458622    -7.442110    -16.882580    -3.351531    22.369364    -46.596951    49.425190    -6.628103    18.567122    -18.992613    -87.862198    116.275970    10.134213    42.933594    22.953308    0.645481    3.081897    25.816294    41.129272    23.528208    16.721371    11.187396    67.787880    -108.926453    -26.894144    14.942310    8.123792    -9.161583    -0.772717    0.711548    22.835567    -13.144713    -0.703430    -19.466856    24.164946    -3.074154    -27.477335    -4.963151    -15.002103    28.467823    13.140696    19.707937    -7.877754    -0.776911    
-75.536263    86.090195    -66.628143    -2.890506    5.597001    22.394630    2.422101    6.813373    3.468497    -11.205902    12.006356    -9.235789    8.254220    -34.716351    -7.888573    -16.811241    -3.369946    22.570795    -45.894230    49.864979    -7.183980    19.657867    -19.787687    -87.546608    116.734581    10.942805    43.619411    22.808437    0.609672    3.076251    25.764723    41.305958    24.411779    16.528841    11.025871    67.684837    -108.363182    -26.689661    14.775645    7.862470    -9.179637    -1.358862    1.221543    21.127619    -12.737492    -1.188764    -18.541183    23.566225    -3.280332    -27.168364    -5.423085    -14.664042    27.278973    12.778516    19.439600    -7.581568    -1.351245    
-75.844231    86.336281    -66.611328    -2.995977    6.111832    23.337460    2.281552    6.211717    3.605580    -11.007961    11.732565    -9.793402    8.267890    -34.961407    -8.379331    -16.799101    -3.402015    22.704647    -44.901253    50.109783    -7.909973    20.510595    -20.354685    -87.424789    117.201393    11.797122    44.264183    22.659664    0.636016    3.056035    25.862213    41.339531    25.074339    16.445053    11.006070    67.591911    -108.061981    -26.582939    14.637972    7.559987    -9.191405    -1.791173    1.791474    19.464821    -12.523031    -1.600259    -17.574636    23.027752    -3.492132    -26.783422    -5.731573    -14.309546    26.079071    12.325886    19.167730    -7.350337    -1.969833    
-76.143570    86.562035    -66.590622    -3.071598    6.578402    24.277187    2.089414    5.655018    3.833696    -10.797610    11.462811    -10.392922    8.308414    -35.202480    -8.902380    -16.862463    -3.398172    22.739870    -43.686226    50.051632    -8.743702    21.036743    -20.626068    -87.559044    117.717461    12.677702    44.803326    22.520302    0.628595    3.040934    26.026466    41.360497    25.619110    16.296125    10.877753    67.569092    -107.859856    -26.551235    14.540283    7.223396    -9.175430    -2.057321    2.406097    17.868702    -12.517500    -1.916236    -16.583893    22.610891    -3.689603    -26.325962    -5.856539    -13.945762    24.904766    11.796081    18.891602    -7.186462    -2.649046    
-76.432487    86.764420    -66.563271    -3.116665    6.978720    25.188841    1.857895    5.164229    4.143217    -10.585394    11.210509    -11.019699    8.362609    -35.450020    -9.448579    -16.962574    -3.418535    22.661314    -42.429146    49.736217    -9.574947    21.318972    -20.791567    -87.860535    118.094223    13.384042    45.092800    22.396944    0.602226    3.046041    26.248652    41.362221    26.058643    16.151499    10.771336    67.534180    -107.919800    -26.593611    14.370951    6.861181    -9.111635    -2.149413    3.046397    16.351734    -12.715636    -2.117951    -15.584108    22.372215    -3.860488    -25.799744    -5.785776    -13.576159    23.782164    11.202161    18.610636    -7.084885    -3.393707    
-76.709518    86.941650    -66.527084    -3.133517    7.301965    26.052048    1.602311    4.749188    4.518624    -10.378164    10.989128    -11.656730    8.411862    -35.713272    -10.007586    -17.099035    -3.422661    22.466869    -41.195141    49.144054    -10.326267    21.353506    -20.731358    -88.349525    118.471809    14.008145    45.205212    22.296091    0.596825    3.085358    26.477373    41.312489    26.459095    16.062283    10.714862    67.440079    -108.266312    -26.699657    14.100211    6.484872    -8.986462    -2.064609    3.686918    14.920258    -13.080146    -2.186391    -14.586105    22.355742    -3.997957    -25.212051    -5.529302    -13.203190    22.725925    10.561775    18.327808    -7.034060    -4.197891    
-76.974060    87.093193    -66.481308    -3.128160    7.546057    26.851391    1.340646    4.408738    4.943171    -10.182173    10.802143    -12.281761    8.438940    -35.992119    -10.563191    -17.245995    -3.435077    22.178387    -40.077164    48.346687    -10.962249    21.134052    -20.579950    -88.963699    118.847855    14.472914    45.073483    22.223619    0.627174    3.178925    26.663870    41.198326    26.882790    16.006886    10.699265    67.274696    -108.804558    -26.835506    13.724039    6.108632    -8.797469    -1.806226    4.295266    13.579401    -13.538821    -2.101326    -13.594356    22.588017    -4.099380    -24.577057    -5.119273    -12.830532    21.741646    9.901775    18.049255    -7.019067    -5.047256    
-77.226341    87.219826    -66.426765    -3.109252    7.716790    27.577236    1.092438    4.131233    5.400190    -10.009631    10.651964    -12.880092    8.437807    -36.275585    -11.106042    -17.402416    -3.434142    21.812826    -39.092403    47.383018    -11.468368    20.753393    -20.302597    -89.655212    119.189728    14.748292    44.684460    22.186626    0.625071    3.331151    26.778309    41.081528    27.361145    15.927338    10.638480    67.055305    -109.452873    -26.973677    13.222322    5.747060    -8.553517    -1.385336    4.835317    12.337345    -13.995467    -1.844733    -12.609129    23.080948    -4.165952    -23.914848    -4.606249    -12.463391    20.827864    9.257406    17.779795    -7.024014    -5.921565    
-77.467056    87.323502    -66.365471    -3.085682    7.824674    28.226267    0.875785    3.900016    5.874638    -9.875669    10.531675    -13.437245    8.411860    -36.543415    -11.622625    -17.568989    -3.409727    21.400972    -38.232700    46.313297    -11.877820    20.262041    -19.957741    -90.365448    119.534752    14.874013    44.081844    22.178387    0.668890    3.545280    26.826813    40.880177    27.896990    16.033146    10.662400    66.683136    -110.368446    -27.155779    12.579423    5.412855    -8.271665    -0.824176    5.271940    11.208913    -14.345739    -1.406437    -11.631526    23.835564    -4.202470    -23.247303    -4.052105    -12.107821    19.978947    8.669434    17.522654    -7.035459    -6.799263    
